<svg xmlns="http://www.w3.org/2000/svg" viewBox="0 0 494.69 437.53"><defs><style>.cls-1{fill:#4c4545;}.cls-2{fill:#3a3a3a;stroke:#3a3a3a;stroke-miterlimit:10;}.cls-3{fill:#25257c;}.cls-4{fill:#443d3d;}.cls-5{fill:#2d2828;}.cls-6{fill:none;}.cls-7{fill:#211e1e;}.cls-8{font-size:67px;fill:#fff;font-family:Liquide;letter-spacing:0.07em;}</style></defs><g id="Layer_1" data-name="Layer 1"><rect class="cls-1" x="40.34" y="64.42" width="65.34" height="32.97" rx="16.49"/><rect class="cls-1" x="389.01" y="64.42" width="65.34" height="32.97" rx="16.49"/><path class="cls-2" d="M478,78.26H16.69A16.23,16.23,0,0,0,.5,94.44v67.37c36.43,18.1,112.84,44.76,246.85,44.76s210.41-26.66,246.84-44.76V94.44A16.23,16.23,0,0,0,478,78.26Z"/><path class="cls-3" d="M247.35,206.57c-134,0-210.42-26.66-246.85-44.76V421.34a16.24,16.24,0,0,0,16.19,16.19H478a16.23,16.23,0,0,0,16.18-16.19V161.81C457.76,179.91,381.35,206.57,247.35,206.57Z"/><rect x="214.98" y="174.69" width="64.74" height="78.58" rx="32.37"/><rect class="cls-4" x="238.96" y="194.59" width="16.78" height="38.79" rx="8.39"/><path class="cls-5" d="M247.35,221.88h0a3.32,3.32,0,0,1-3.31-3.31v-9.16a3.32,3.32,0,0,1,3.31-3.31h0a3.31,3.31,0,0,1,3.3,3.31v9.16A3.31,3.31,0,0,1,247.35,221.88Z"/><path class="cls-6" d="M335.89,15.27H158.81a8.55,8.55,0,0,0-8.55,8.55V78.26H344.44V23.82A8.56,8.56,0,0,0,335.89,15.27Z"/><path class="cls-7" d="M150.26,23.82a8.55,8.55,0,0,1,8.55-8.55H335.89a8.56,8.56,0,0,1,8.55,8.55V78.26H359.7V23.82A23.84,23.84,0,0,0,335.89,0H158.81A23.85,23.85,0,0,0,135,23.82V78.26h15.27Z"/><text class="cls-8" transform="translate(35.45 394.51)">WHATJOB</text></g></svg>