<?xml version="1.0" encoding="utf-8"?>
<!-- Generator: Adobe Illustrator 25.2.0, SVG Export Plug-In . SVG Version: 6.00 Build 0)  -->
<svg version="1.1" xmlns="http://www.w3.org/2000/svg" xmlns:xlink="http://www.w3.org/1999/xlink" x="0px" y="0px"
	 viewBox="0 0 524 525" enable-background="new 0 0 524 525" xml:space="preserve">
<g id="Layer_1">
	<g>
		<g>
			<path fill="#4C4545" d="M104.7,146.4H72.3c-9.1,0-16.5-7.4-16.5-16.5v0c0-9.1,7.4-16.5,16.5-16.5h32.4c9.1,0,16.5,7.4,16.5,16.5
				v0C121.2,139,113.8,146.4,104.7,146.4z"/>
			<path fill="#4C4545" d="M453.4,146.4H421c-9.1,0-16.5-7.4-16.5-16.5v0c0-9.1,7.4-16.5,16.5-16.5h32.4c9.1,0,16.5,7.4,16.5,16.5v0
				C469.9,139,462.4,146.4,453.4,146.4z"/>
		</g>
		<path fill="#3A3A3A" stroke="#3A3A3A" stroke-miterlimit="10" d="M493.5,127.3H375.2h-15.3H165.8h-15.3H32.2
			c-8.9,0-16.2,7.3-16.2,16.2v67.4c36.4,18.1,112.8,44.8,246.8,44.8s210.4-26.7,246.8-44.8v-67.4
			C509.7,134.6,502.4,127.3,493.5,127.3z"/>
		<path fill="#25257C" d="M262.8,255.6c-134,0-210.4-26.7-246.8-44.8v259.5c0,8.9,7.3,16.2,16.2,16.2h461.3
			c8.9,0,16.2-7.3,16.2-16.2V210.8C473.3,228.9,396.8,255.6,262.8,255.6z"/>
		<path d="M262.8,302.3L262.8,302.3c-17.8,0-32.4-14.6-32.4-32.4v-13.8c0-17.8,14.6-32.4,32.4-32.4h0c17.8,0,32.4,14.6,32.4,32.4
			v13.8C295.2,287.7,280.6,302.3,262.8,302.3z"/>
		<path fill="#443D3D" d="M262.8,282.4L262.8,282.4c-4.6,0-8.4-3.8-8.4-8.4v-22c0-4.6,3.8-8.4,8.4-8.4l0,0c4.6,0,8.4,3.8,8.4,8.4v22
			C271.2,278.6,267.5,282.4,262.8,282.4z"/>
		<path fill="#2D2828" d="M262.8,270.9L262.8,270.9c-1.8,0-3.3-1.5-3.3-3.3v-9.2c0-1.8,1.5-3.3,3.3-3.3l0,0c1.8,0,3.3,1.5,3.3,3.3
			v9.2C266.2,269.4,264.7,270.9,262.8,270.9z"/>
		<path fill="none" d="M351.4,64.3H174.3c-4.7,0-8.6,3.8-8.6,8.6v54.4h194.2V72.8C359.9,68.1,356.1,64.3,351.4,64.3z"/>
		<path fill="#211E1E" d="M165.8,72.8c0-4.7,3.8-8.6,8.6-8.6h177.1c4.7,0,8.6,3.8,8.6,8.6v54.4h15.3V72.8
			c0-13.1-10.7-23.8-23.8-23.8H174.3c-13.1,0-23.8,10.7-23.8,23.8v54.4h15.3V72.8z"/>
	</g>
	<g>
		<path fill="#FFFFFF" d="M103.4,366c0-1,0.4-1.9,1.1-2.6c0.7-0.7,1.6-1,2.6-1h0.3c1.1,0,2.1,0.4,2.8,1.2c0.8,0.8,1.1,1.8,1,2.9
			l-3.5,55.9c-0.1,1-0.5,1.9-1.2,2.7c-0.7,0.8-1.6,1.1-2.7,1.1h-4.1c-0.8,0-1.5-0.3-2.2-0.8c-0.6-0.5-1.1-1.2-1.4-1.9l-7.8-16.5
			l-9.1-20l-0.1-0.1H79c-0.1,0-0.1,0-0.1,0.1c-1.1,2.5-1.9,4.3-2.4,5.7c-0.6,1.3-1,2.3-1.2,2.9c-0.3,0.6-0.4,1-0.5,1.2
			c-0.1,0.2-0.3,0.6-0.5,1.2c-0.3,0.6-0.7,1.6-1.3,2.9c-0.6,1.3-1.4,3.2-2.5,5.7l-7.8,17c-0.3,0.8-0.8,1.4-1.4,1.9
			c-0.6,0.5-1.4,0.8-2.3,0.8h-4.1c-1,0-1.9-0.4-2.6-1.1c-0.7-0.7-1.1-1.6-1.2-2.5l-4-55.9c-0.1-1.2,0.3-2.2,1-3
			c0.8-0.8,1.8-1.2,2.9-1.2c1,0,1.9,0.3,2.6,1c0.7,0.7,1.1,1.6,1.1,2.6l1.6,23.8c0.1,2.4,0.3,4.8,0.4,7.3c0.1,2.5,0.2,5,0.3,7.4
			c0.1,2.4,0.2,4.8,0.3,7.1c0.1,2.3,0.2,4.4,0.3,6.3h0.2l5.6-13.2l11-26.1c0.3-0.8,0.8-1.4,1.5-1.8c0.7-0.5,1.4-0.7,2.3-0.7h0.7
			c0.8,0,1.6,0.2,2.3,0.6c0.7,0.4,1.1,1,1.3,1.8l12.9,26.9c0.7,1.6,1.2,2.8,1.6,3.6c0.4,0.8,0.6,1.4,0.8,1.8
			c0.2,0.4,0.2,0.6,0.2,0.6c0,0,0,0.1,0,0c0,0,0,0,0,0.1c0,0.1,0.1,0.3,0.3,0.7c0.2,0.4,0.5,1,0.9,1.9c0.4,0.9,1,2.1,1.7,3.7h0.1
			h0.1v-0.1l0.1-0.1c0-2,0-4.1,0-6.3c0-2.3,0.1-4.6,0.2-6.9c0.1-2.3,0.2-4.7,0.3-7.1c0.1-2.4,0.2-4.7,0.4-6.9L103.4,366z"/>
		<path fill="#FFFFFF" d="M134.2,366.6V385c0,1.2,0.4,2.1,1.2,2.9c0.8,0.8,1.8,1.2,2.9,1.2h21.2c1,0,1.9-0.4,2.7-1.2
			c0.8-0.8,1.2-1.8,1.2-2.9v-18.4c0-1.1,0.4-2.1,1.1-2.9c0.8-0.8,1.7-1.2,2.7-1.2h0.1c1.1,0,2,0.4,2.7,1.2c0.8,0.8,1.1,1.8,1.1,2.9
			v55.5c0,1.2-0.4,2.2-1.1,3c-0.8,0.8-1.7,1.2-2.7,1.2h-0.1c-1.1,0-2-0.4-2.7-1.2c-0.8-0.8-1.1-1.8-1.1-3v-21.6
			c0-1.1-0.4-2.1-1.2-2.9c-0.8-0.8-1.7-1.2-2.7-1.2h-21.2c-1.2,0-2.1,0.4-2.9,1.2c-0.8,0.8-1.2,1.8-1.2,2.9v21.6
			c0,1.2-0.4,2.2-1.1,3c-0.7,0.8-1.6,1.2-2.7,1.2c-1.1,0-2-0.4-2.7-1.2c-0.8-0.8-1.1-1.8-1.1-3v-55.5c0-1.1,0.4-2.1,1.1-2.9
			c0.8-0.8,1.7-1.2,2.7-1.2c1.1,0,2,0.4,2.7,1.2C133.8,364.5,134.2,365.5,134.2,366.6z"/>
		<path fill="#FFFFFF" d="M199.5,408.9l-4.8,14.7c-0.3,0.8-0.8,1.5-1.5,2c-0.7,0.5-1.5,0.7-2.4,0.7c-0.7,0-1.3-0.2-1.8-0.5
			c-0.6-0.3-1-0.7-1.4-1.2c-0.4-0.5-0.6-1.1-0.7-1.7c-0.1-0.6-0.1-1.3,0.1-1.9l19-55.9c0.3-0.8,0.8-1.5,1.6-2
			c0.7-0.5,1.5-0.7,2.4-0.7h4.2c0.8,0,1.6,0.2,2.3,0.7c0.7,0.5,1.2,1.2,1.4,2l19.2,55.9c0.2,0.7,0.2,1.3,0.1,1.9
			c-0.1,0.6-0.3,1.2-0.7,1.7c-0.4,0.5-0.8,0.9-1.4,1.2c-0.6,0.3-1.2,0.5-1.8,0.5H233c-0.9,0-1.7-0.2-2.4-0.7c-0.7-0.5-1.2-1.2-1.4-2
			l-5.1-14.7c-0.3-0.8-0.7-1.5-1.4-1.9c-0.7-0.5-1.5-0.7-2.3-0.7h-17c-0.9,0-1.7,0.2-2.3,0.7C200.3,407.4,199.8,408.1,199.5,408.9z
			 M215.8,399.6c0.7,0,1.3-0.1,1.9-0.4c0.6-0.3,1-0.7,1.4-1.2c0.4-0.5,0.6-1.1,0.7-1.7c0.1-0.6,0.1-1.3-0.2-2l-4.4-12.9
			c-0.8-2.2-1.4-4.2-1.9-6.1c-0.5-1.9-1-3.8-1.5-5.7h-0.2c-0.4,1.9-0.9,3.8-1.5,5.7c-0.6,1.9-1.2,3.9-1.8,5.9l-4.4,13.1
			c-0.3,0.7-0.3,1.3-0.2,2c0.1,0.6,0.4,1.2,0.7,1.7c0.4,0.5,0.9,0.9,1.4,1.2c0.6,0.3,1.2,0.4,1.9,0.4H215.8z"/>
		<path fill="#FFFFFF" d="M267.2,369.4h-12.4c-1,0-1.8-0.3-2.5-1c-0.7-0.7-1-1.5-1-2.4c0-0.9,0.3-1.7,1-2.4s1.5-1,2.5-1h40
			c1,0,1.9,0.3,2.6,1c0.7,0.7,1,1.5,1,2.4c0,0.9-0.3,1.8-1,2.4c-0.7,0.7-1.6,1-2.6,1h-12.4c-0.9,0-1.8,0.3-2.4,1
			c-0.7,0.7-1,1.6-1,2.6v49.5c0,1-0.3,1.8-1,2.5c-0.7,0.7-1.5,1-2.5,1h-1.4c-0.9,0-1.7-0.3-2.4-1c-0.7-0.7-1-1.5-1-2.5V373
			c0-1-0.3-1.9-1-2.6C268.9,369.7,268.1,369.4,267.2,369.4z"/>
		<path fill="#FFFFFF" d="M336.5,362.4h1.4c0.9,0,1.7,0.3,2.3,0.9c0.6,0.6,0.9,1.4,0.9,2.3v38.7c0,4.2-0.5,7.7-1.4,10.5
			c-1,2.8-2.3,5.1-4,6.8c-1.7,1.7-3.7,2.9-6,3.6c-2.3,0.7-4.8,1.1-7.6,1.1c-0.8,0-1.7-0.1-2.7-0.2s-1.9-0.3-2.7-0.4
			c-0.9-0.2-1.7-0.7-2.1-1.4c-0.5-0.8-0.6-1.6-0.5-2.4c0.1-0.9,0.6-1.7,1.3-2.2c0.8-0.6,1.6-0.7,2.5-0.6c0.5,0.1,1.1,0.2,1.7,0.2
			s1.2,0,1.8,0c1.8,0,3.5-0.2,4.9-0.7c1.4-0.5,2.6-1.3,3.6-2.4c1-1.2,1.7-2.7,2.2-4.8c0.5-2,0.8-4.6,0.8-7.6v-38.1
			c0-0.9,0.3-1.7,1-2.3C334.8,362.7,335.6,362.4,336.5,362.4z"/>
		<path fill="#FFFFFF" d="M413.7,393.8c0,5.4-0.8,10.1-2.3,14.1c-1.6,4.1-3.7,7.5-6.4,10.2c-2.7,2.7-5.9,4.8-9.5,6.2
			s-7.5,2.1-11.6,2.1c-4.2,0-8.1-0.7-11.7-2.2c-3.6-1.5-6.6-3.6-9.1-6.4c-2.5-2.7-4.5-6.1-6-9.9c-1.4-3.9-2.1-8.2-2.1-12.9
			c0-4.9,0.7-9.3,2.2-13.3c1.5-4,3.6-7.4,6.3-10.3c2.7-2.8,5.8-5,9.5-6.6c3.6-1.5,7.6-2.3,11.9-2.3c4.4,0,8.4,0.8,12,2.3
			c3.6,1.5,6.6,3.7,9.1,6.4c2.5,2.7,4.5,6,5.8,9.8C413,385,413.7,389.2,413.7,393.8z M363.7,394.9c0,3.3,0.5,6.5,1.4,9.5
			c0.9,3,2.2,5.7,4,8c1.7,2.3,3.9,4.1,6.4,5.5c2.5,1.4,5.4,2.1,8.7,2.1c3.3,0,6.2-0.7,8.7-2c2.6-1.4,4.7-3.2,6.5-5.6
			c1.8-2.3,3.1-5.1,4-8.2c0.9-3.1,1.4-6.4,1.4-10c0-3.1-0.4-6.1-1.3-9.2c-0.8-3-2.1-5.7-3.8-8.1c-1.7-2.4-3.8-4.3-6.4-5.8
			c-2.6-1.5-5.6-2.2-9-2.2c-3.4,0-6.5,0.7-9,2.1c-2.6,1.4-4.7,3.3-6.5,5.7c-1.7,2.4-3,5.1-3.9,8.2
			C364.2,388.2,363.7,391.5,363.7,394.9z"/>
		<path fill="#FFFFFF" d="M427.7,369.8c0-0.8,0.2-1.7,0.5-2.4c0.3-0.8,0.7-1.5,1.3-2.1c0.5-0.6,1.2-1.1,1.9-1.4
			c0.7-0.4,1.5-0.6,2.4-0.7c1.3-0.2,2.7-0.3,4.2-0.4c1.5-0.1,3-0.1,4.5-0.1c4.1,0,7.5,0.4,10.2,1.1c2.7,0.7,5,1.9,7,3.6
			c1.6,1.2,2.9,2.7,3.8,4.5c0.9,1.8,1.4,4,1.4,6.5c0,3-0.9,5.7-2.8,8.2c-1.9,2.5-4.4,4.3-7.7,5.6v0.1c1.5,0.4,3,1,4.5,1.8
			c1.5,0.8,2.9,1.8,4.1,3.1c1.2,1.3,2.2,2.8,3,4.6c0.8,1.8,1.2,3.8,1.2,6.1c0,2.8-0.5,5.2-1.4,7.2c-1,2.1-2.2,3.8-3.8,5.3
			c-2.2,2.1-5.1,3.6-8.6,4.5c-3.6,0.9-7.9,1.4-13,1.4c-1.2,0-2.3,0-3.3,0c-1,0-2,0-2.9-0.1c-1.8-0.1-3.4-0.8-4.6-2
			c-1.2-1.3-1.8-2.8-1.8-4.7V369.8z M435.8,382.9c0,0.9,0.2,1.8,0.5,2.6c0.4,0.8,0.8,1.5,1.4,2.1c0.6,0.6,1.3,1.1,2.1,1.4
			c0.8,0.3,1.7,0.5,2.6,0.5h0.7c2.1,0,4-0.3,5.7-0.8c1.7-0.5,3-1.3,4.2-2.2c1.1-0.9,2-2,2.6-3.3c0.6-1.3,0.9-2.7,0.9-4.2
			c0-1.8-0.3-3.3-1-4.6c-0.6-1.3-1.6-2.4-2.8-3.2s-2.7-1.4-4.4-1.8c-1.7-0.4-3.6-0.6-5.6-0.6h-0.4c-0.9,0-1.8,0.3-2.6,0.6
			c-0.8,0.4-1.5,0.9-2.1,1.5c-0.6,0.6-1.1,1.3-1.4,2.1c-0.3,0.8-0.5,1.6-0.5,2.6V382.9z M435.8,413.3c0,1.9,0.7,3.4,2,4.7
			c1.3,1.2,2.9,1.9,4.7,1.9h0.1c2.1,0,4.1-0.2,6-0.6c1.9-0.4,3.6-1.1,5.1-2c1.5-0.9,2.7-2.2,3.6-3.7c0.9-1.5,1.3-3.5,1.3-5.7
			c0-2.1-0.4-3.9-1.3-5.4c-0.8-1.5-2-2.8-3.5-3.7c-1.5-1-3.2-1.7-5.2-2.1c-2-0.5-4-0.7-6.2-0.7c-1.8,0-3.4,0.6-4.7,1.9
			c-1.3,1.3-2,2.8-2,4.7V413.3z"/>
	</g>
</g>
<g id="Layer_2" display="none">
	<g display="inline">
		<path d="M193.4,436c0-1,0.4-1.9,1.1-2.6c0.7-0.7,1.6-1,2.6-1h0.3c1.1,0,2.1,0.4,2.8,1.2c0.8,0.8,1.1,1.8,1,2.9l-3.5,55.9
			c-0.1,1-0.5,1.9-1.2,2.7c-0.7,0.8-1.6,1.1-2.7,1.1h-4.1c-0.8,0-1.5-0.3-2.2-0.8c-0.6-0.5-1.1-1.2-1.4-1.9l-7.8-16.5l-9.1-20
			l-0.1-0.1H169c-0.1,0-0.1,0-0.1,0.1c-1.1,2.5-1.9,4.3-2.4,5.7c-0.6,1.3-1,2.3-1.2,2.9c-0.3,0.6-0.4,1-0.5,1.2
			c-0.1,0.2-0.3,0.6-0.5,1.2c-0.3,0.6-0.7,1.6-1.3,2.9c-0.6,1.3-1.4,3.2-2.5,5.7l-7.8,17c-0.3,0.8-0.8,1.4-1.4,1.9
			c-0.6,0.5-1.4,0.8-2.3,0.8h-4.1c-1,0-1.9-0.4-2.6-1.1c-0.7-0.7-1.1-1.6-1.2-2.5l-4-55.9c-0.1-1.2,0.3-2.2,1-3
			c0.8-0.8,1.8-1.2,2.9-1.2c1,0,1.9,0.3,2.6,1c0.7,0.7,1.1,1.6,1.1,2.6l1.6,23.8c0.1,2.4,0.3,4.8,0.4,7.3c0.1,2.5,0.2,5,0.3,7.4
			c0.1,2.4,0.2,4.8,0.3,7.1c0.1,2.3,0.2,4.4,0.3,6.3h0.2l5.6-13.2l11-26.1c0.3-0.8,0.8-1.4,1.5-1.8c0.7-0.5,1.4-0.7,2.3-0.7h0.7
			c0.8,0,1.6,0.2,2.3,0.6c0.7,0.4,1.1,1,1.3,1.8l12.9,26.9c0.7,1.6,1.2,2.8,1.6,3.6c0.4,0.8,0.6,1.4,0.8,1.8
			c0.2,0.4,0.2,0.6,0.2,0.6c0,0,0,0.1,0,0c0,0,0,0,0,0.1c0,0.1,0.1,0.3,0.3,0.7c0.2,0.4,0.5,1,0.9,1.9c0.4,0.9,1,2.1,1.7,3.7h0.1
			h0.1v-0.1l0.1-0.1c0-2,0-4.1,0-6.3c0-2.3,0.1-4.6,0.2-6.9c0.1-2.3,0.2-4.7,0.3-7.1c0.1-2.4,0.2-4.7,0.4-6.9L193.4,436z"/>
		<path d="M224.2,436.6V455c0,1.2,0.4,2.1,1.2,2.9c0.8,0.8,1.8,1.2,2.9,1.2h21.2c1,0,1.9-0.4,2.7-1.2c0.8-0.8,1.2-1.8,1.2-2.9v-18.4
			c0-1.1,0.4-2.1,1.1-2.9c0.8-0.8,1.7-1.2,2.7-1.2h0.1c1.1,0,2,0.4,2.7,1.2c0.8,0.8,1.1,1.8,1.1,2.9v55.5c0,1.2-0.4,2.2-1.1,3
			c-0.8,0.8-1.7,1.2-2.7,1.2h-0.1c-1.1,0-2-0.4-2.7-1.2c-0.8-0.8-1.1-1.8-1.1-3v-21.6c0-1.1-0.4-2.1-1.2-2.9
			c-0.8-0.8-1.7-1.2-2.7-1.2h-21.2c-1.2,0-2.1,0.4-2.9,1.2c-0.8,0.8-1.2,1.8-1.2,2.9v21.6c0,1.2-0.4,2.2-1.1,3
			c-0.7,0.8-1.6,1.2-2.7,1.2c-1.1,0-2-0.4-2.7-1.2c-0.8-0.8-1.1-1.8-1.1-3v-55.5c0-1.1,0.4-2.1,1.1-2.9c0.8-0.8,1.7-1.2,2.7-1.2
			c1.1,0,2,0.4,2.7,1.2C223.8,434.5,224.2,435.5,224.2,436.6z"/>
		<path d="M289.5,478.9l-4.8,14.7c-0.3,0.8-0.8,1.5-1.5,2c-0.7,0.5-1.5,0.7-2.4,0.7c-0.7,0-1.3-0.2-1.8-0.5c-0.6-0.3-1-0.7-1.4-1.2
			c-0.4-0.5-0.6-1.1-0.7-1.7c-0.1-0.6-0.1-1.3,0.1-1.9l19-55.9c0.3-0.8,0.8-1.5,1.6-2c0.7-0.5,1.5-0.7,2.4-0.7h4.2
			c0.8,0,1.6,0.2,2.3,0.7c0.7,0.5,1.2,1.2,1.4,2l19.2,55.9c0.2,0.7,0.2,1.3,0.1,1.9c-0.1,0.6-0.3,1.2-0.7,1.7
			c-0.4,0.5-0.8,0.9-1.4,1.2c-0.6,0.3-1.2,0.5-1.8,0.5H323c-0.9,0-1.7-0.2-2.4-0.7c-0.7-0.5-1.2-1.2-1.4-2l-5.1-14.7
			c-0.3-0.8-0.7-1.5-1.4-1.9c-0.7-0.5-1.5-0.7-2.3-0.7h-17c-0.9,0-1.7,0.2-2.3,0.7C290.3,477.4,289.8,478.1,289.5,478.9z
			 M305.8,469.6c0.7,0,1.3-0.1,1.9-0.4c0.6-0.3,1-0.7,1.4-1.2c0.4-0.5,0.6-1.1,0.7-1.7c0.1-0.6,0.1-1.3-0.2-2l-4.4-12.9
			c-0.8-2.2-1.4-4.2-1.9-6.1c-0.5-1.9-1-3.8-1.5-5.7h-0.2c-0.4,1.9-0.9,3.8-1.5,5.7c-0.6,1.9-1.2,3.9-1.8,5.9l-4.4,13.1
			c-0.3,0.7-0.3,1.3-0.2,2c0.1,0.6,0.4,1.2,0.7,1.7c0.4,0.5,0.9,0.9,1.4,1.2c0.6,0.3,1.2,0.4,1.9,0.4H305.8z"/>
		<path d="M357.2,439.4h-12.4c-1,0-1.8-0.3-2.5-1c-0.7-0.7-1-1.5-1-2.4c0-0.9,0.3-1.7,1-2.4s1.5-1,2.5-1h40c1,0,1.9,0.3,2.6,1
			c0.7,0.7,1,1.5,1,2.4c0,0.9-0.3,1.8-1,2.4c-0.7,0.7-1.6,1-2.6,1h-12.4c-0.9,0-1.8,0.3-2.4,1c-0.7,0.7-1,1.6-1,2.6v49.5
			c0,1-0.3,1.8-1,2.5c-0.7,0.7-1.5,1-2.5,1h-1.4c-0.9,0-1.7-0.3-2.4-1c-0.7-0.7-1-1.5-1-2.5V443c0-1-0.3-1.9-1-2.6
			C358.9,439.7,358.1,439.4,357.2,439.4z"/>
		<path d="M426.5,432.4h1.4c0.9,0,1.7,0.3,2.3,0.9c0.6,0.6,0.9,1.4,0.9,2.3v38.7c0,4.2-0.5,7.7-1.4,10.5c-1,2.8-2.3,5.1-4,6.8
			c-1.7,1.7-3.7,2.9-6,3.6c-2.3,0.7-4.8,1.1-7.6,1.1c-0.8,0-1.7-0.1-2.7-0.2s-1.9-0.3-2.7-0.4c-0.9-0.2-1.7-0.7-2.1-1.4
			c-0.5-0.8-0.6-1.6-0.5-2.4c0.1-0.9,0.6-1.7,1.3-2.2c0.8-0.6,1.6-0.7,2.5-0.6c0.5,0.1,1.1,0.2,1.7,0.2s1.2,0,1.8,0
			c1.8,0,3.5-0.2,4.9-0.7c1.4-0.5,2.6-1.3,3.6-2.4c1-1.2,1.7-2.7,2.2-4.8c0.5-2,0.8-4.6,0.8-7.6v-38.1c0-0.9,0.3-1.7,1-2.3
			C424.8,432.7,425.6,432.4,426.5,432.4z"/>
		<path d="M503.7,463.8c0,5.4-0.8,10.1-2.3,14.1c-1.6,4.1-3.7,7.5-6.4,10.2c-2.7,2.7-5.9,4.8-9.5,6.2s-7.5,2.1-11.6,2.1
			c-4.2,0-8.1-0.7-11.7-2.2c-3.6-1.5-6.6-3.6-9.1-6.4c-2.5-2.7-4.5-6.1-6-9.9c-1.4-3.9-2.1-8.2-2.1-12.9c0-4.9,0.7-9.3,2.2-13.3
			c1.5-4,3.6-7.4,6.3-10.3c2.7-2.8,5.8-5,9.5-6.6c3.6-1.5,7.6-2.3,11.9-2.3c4.4,0,8.4,0.8,12,2.3c3.6,1.5,6.6,3.7,9.1,6.4
			c2.5,2.7,4.5,6,5.8,9.8C503,455,503.7,459.2,503.7,463.8z M453.7,464.9c0,3.3,0.5,6.5,1.4,9.5c0.9,3,2.2,5.7,4,8
			c1.7,2.3,3.9,4.1,6.4,5.5c2.5,1.4,5.4,2.1,8.7,2.1c3.3,0,6.2-0.7,8.7-2c2.6-1.4,4.7-3.2,6.5-5.6c1.8-2.3,3.1-5.1,4-8.2
			c0.9-3.1,1.4-6.4,1.4-10c0-3.1-0.4-6.1-1.3-9.2c-0.8-3-2.1-5.7-3.8-8.1c-1.7-2.4-3.8-4.3-6.4-5.8c-2.6-1.5-5.6-2.2-9-2.2
			c-3.4,0-6.5,0.7-9,2.1c-2.6,1.4-4.7,3.3-6.5,5.7c-1.7,2.4-3,5.1-3.9,8.2C454.2,458.2,453.7,461.5,453.7,464.9z"/>
		<path d="M517.7,439.8c0-0.8,0.2-1.7,0.5-2.4c0.3-0.8,0.7-1.5,1.3-2.1c0.5-0.6,1.2-1.1,1.9-1.4c0.7-0.4,1.5-0.6,2.4-0.7
			c1.3-0.2,2.7-0.3,4.2-0.4c1.5-0.1,3-0.1,4.5-0.1c4.1,0,7.5,0.4,10.2,1.1c2.7,0.7,5,1.9,7,3.6c1.6,1.2,2.9,2.7,3.8,4.5
			c0.9,1.8,1.4,4,1.4,6.5c0,3-0.9,5.7-2.8,8.2c-1.9,2.5-4.4,4.3-7.7,5.6v0.1c1.5,0.4,3,1,4.5,1.8c1.5,0.8,2.9,1.8,4.1,3.1
			c1.2,1.3,2.2,2.8,3,4.6c0.8,1.8,1.2,3.8,1.2,6.1c0,2.8-0.5,5.2-1.4,7.2c-1,2.1-2.2,3.8-3.8,5.3c-2.2,2.1-5.1,3.6-8.6,4.5
			c-3.6,0.9-7.9,1.4-13,1.4c-1.2,0-2.3,0-3.3,0c-1,0-2,0-2.9-0.1c-1.8-0.1-3.4-0.8-4.6-2c-1.2-1.3-1.8-2.8-1.8-4.7V439.8z
			 M525.8,452.9c0,0.9,0.2,1.8,0.5,2.6c0.4,0.8,0.8,1.5,1.4,2.1c0.6,0.6,1.3,1.1,2.1,1.4c0.8,0.3,1.7,0.5,2.6,0.5h0.7
			c2.1,0,4-0.3,5.7-0.8c1.7-0.5,3-1.3,4.2-2.2c1.1-0.9,2-2,2.6-3.3c0.6-1.3,0.9-2.7,0.9-4.2c0-1.8-0.3-3.3-1-4.6
			c-0.6-1.3-1.6-2.4-2.8-3.2s-2.7-1.4-4.4-1.8c-1.7-0.4-3.6-0.6-5.6-0.6h-0.4c-0.9,0-1.8,0.3-2.6,0.6c-0.8,0.4-1.5,0.9-2.1,1.5
			c-0.6,0.6-1.1,1.3-1.4,2.1c-0.3,0.8-0.5,1.6-0.5,2.6V452.9z M525.8,483.3c0,1.9,0.7,3.4,2,4.7c1.3,1.2,2.9,1.9,4.7,1.9h0.1
			c2.1,0,4.1-0.2,6-0.6c1.9-0.4,3.6-1.1,5.1-2c1.5-0.9,2.7-2.2,3.6-3.7c0.9-1.5,1.3-3.5,1.3-5.7c0-2.1-0.4-3.9-1.3-5.4
			c-0.8-1.5-2-2.8-3.5-3.7c-1.5-1-3.2-1.7-5.2-2.1c-2-0.5-4-0.7-6.2-0.7c-1.8,0-3.4,0.6-4.7,1.9c-1.3,1.3-2,2.8-2,4.7V483.3z"/>
	</g>
	<g display="inline">
		<g>
			<path fill="#4C4545" d="M192.9,156.2h-32.4c-9.1,0-16.5-7.4-16.5-16.5v0c0-9.1,7.4-16.5,16.5-16.5h32.4c9.1,0,16.5,7.4,16.5,16.5
				v0C209.4,148.8,201.9,156.2,192.9,156.2z"/>
			<path fill="#4C4545" d="M541.5,156.2h-32.4c-9.1,0-16.5-7.4-16.5-16.5v0c0-9.1,7.4-16.5,16.5-16.5h32.4c9.1,0,16.5,7.4,16.5,16.5
				v0C558,148.8,550.6,156.2,541.5,156.2z"/>
		</g>
		<path fill="#3A3A3A" d="M581.7,137.1H463.4h-15.3H253.9h-15.3H120.4c-8.9,0-16.2,7.3-16.2,16.2v67.4
			c36.4,18.1,112.8,44.8,246.8,44.8s210.4-26.7,246.8-44.8v-67.4C597.9,144.4,590.6,137.1,581.7,137.1z"/>
		<path fill="#25257C" d="M351,252.2c-134,0-210.4-18.8-246.8-31.6v183c0,6.3,7.3,11.4,16.2,11.4h461.3c8.9,0,16.2-5.1,16.2-11.4
			v-183C561.4,233.4,485,252.2,351,252.2z"/>
		<path d="M351,312.1L351,312.1c-17.8,0-32.4-14.6-32.4-32.4v-13.8c0-17.8,14.6-32.4,32.4-32.4h0c17.8,0,32.4,14.6,32.4,32.4v13.8
			C383.4,297.5,368.8,312.1,351,312.1z"/>
		<path fill="#443D3D" d="M351,292.2L351,292.2c-4.6,0-8.4-3.8-8.4-8.4v-22c0-4.6,3.8-8.4,8.4-8.4l0,0c4.6,0,8.4,3.8,8.4,8.4v22
			C359.4,288.4,355.6,292.2,351,292.2z"/>
		<path fill="#2D2828" d="M351,280.7L351,280.7c-1.8,0-3.3-1.5-3.3-3.3v-9.2c0-1.8,1.5-3.3,3.3-3.3l0,0c1.8,0,3.3,1.5,3.3,3.3v9.2
			C354.3,279.2,352.8,280.7,351,280.7z"/>
		<path fill="none" d="M439.6,74.1H262.5c-4.7,0-8.6,3.8-8.6,8.6v54.4h194.2V82.7C448.1,77.9,444.3,74.1,439.6,74.1z"/>
		<path fill="#211E1E" d="M253.9,82.7c0-4.7,3.8-8.6,8.6-8.6h177.1c4.7,0,8.6,3.8,8.6,8.6v54.4h15.3V82.7
			c0-13.1-10.7-23.8-23.8-23.8H262.5c-13.1,0-23.8,10.7-23.8,23.8v54.4h15.3V82.7z"/>
	</g>
</g>
</svg>
