<?xml version="1.0" standalone="no"?>
<!DOCTYPE svg PUBLIC "-//W3C//DTD SVG 20010904//EN"
 "http://www.w3.org/TR/2001/REC-SVG-20010904/DTD/svg10.dtd">
<svg version="1.0" xmlns="http://www.w3.org/2000/svg"
 width="525.000000pt" height="525.000000pt" viewBox="0 0 525.000000 525.000000"
 preserveAspectRatio="xMidYMid meet">
<metadata>
Created by potrace 1.14, written by Peter Selinger 2001-2017
</metadata>
<g transform="translate(0.000000,525.000000) scale(0.100000,-0.100000)"
fill="#000000" stroke="none">
<path d="M1655 4742 c-54 -22 -97 -62 -125 -119 -24 -47 -24 -53 -25 -343 l0
-295 -150 0 c-93 0 -150 4 -151 10 -1 23 -29 66 -53 82 -56 38 -65 39 -272 38
-185 -1 -209 -3 -235 -20 -43 -28 -58 -45 -70 -79 l-11 -31 -137 -2 c-171 -2
-211 -17 -248 -91 l-24 -47 3 -390 c1 -215 3 -416 5 -448 2 -31 0 -57 -3 -57
-4 0 -3 -16 1 -35 4 -19 5 -37 1 -39 -4 -3 -4 -30 -1 -60 3 -31 4 -56 1 -56
-4 0 -5 -33 -4 -72 2 -62 3 -122 3 -220 0 -10 0 -24 1 -30 0 -7 0 -47 -1 -88
-1 -41 -1 -79 0 -85 1 -5 1 -32 0 -60 -1 -49 0 -69 3 -168 1 -26 -1 -47 -4
-47 -4 0 -3 -16 1 -35 4 -19 5 -37 1 -39 -4 -3 -4 -30 -1 -60 3 -31 4 -56 1
-56 -4 0 -5 -33 -4 -72 2 -62 3 -122 3 -220 0 -10 0 -24 1 -30 0 -7 0 -47 -1
-88 -1 -41 -1 -79 0 -85 1 -5 1 -32 0 -60 -1 -49 0 -69 3 -168 1 -26 -1 -47
-4 -47 -4 0 -3 -16 1 -35 4 -19 5 -37 1 -39 -4 -3 -4 -30 -1 -60 3 -31 4 -56
1 -56 -4 0 -5 -33 -4 -72 4 -119 5 -212 3 -223 -1 -5 -1 -12 0 -15 1 -3 3 -13
5 -23 6 -34 50 -87 85 -104 33 -16 186 -17 2370 -18 2479 -2 2371 -3 2424 43
10 9 27 35 36 57 16 37 17 157 18 1700 1 1217 -2 1668 -10 1690 -20 53 -60 88
-118 102 -8 2 -75 4 -147 4 -73 0 -131 4 -130 9 1 5 -9 27 -23 49 -41 68 -67
75 -287 76 -245 2 -288 -12 -323 -100 l-13 -34 -146 2 -146 2 -1 295 c-2 326
-4 337 -66 403 -18 19 -54 44 -81 56 l-47 21 -933 -1 c-827 -1 -937 -3 -972
-17z m1267 -136 c59 -1 108 3 108 8 0 5 6 4 13 -1 6 -5 59 -7 117 -6 58 2 110
3 115 3 41 0 262 -8 270 -9 21 -3 46 -30 51 -52 4 -20 6 -451 3 -499 -1 -8 0
-19 1 -25 1 -5 2 -18 1 -28 -1 -16 -52 -17 -971 -16 -891 1 -970 3 -971 18 0
9 -1 135 -1 279 0 278 3 300 46 319 12 6 235 10 554 9 292 -1 532 3 532 7 0 5
5 5 12 1 7 -5 61 -8 120 -8z"/>
</g>
</svg>
